# xmcd CD database file
#
# Track frame offsets:
#	150
#	14431
#	28928
#	43428
#	55764
#	68085
#	80478
#	95352
#	110305
#	125249
#	138035
#	150965
#	163884
#	175010
#	186372
#	197714
#	211769
#	225891
#	240018
#	256625
#	273296
#	290046
#	303945
#	317919
#
# Disc length: 4425 seconds
#
# Revision: 1
# Processed by: cddbd v1.5.2PL0 Copyright (c) Steve Scherf et al.
# Submitted via: CDex 1.70beta2
#
DISCID=41114718
DTITLE=Nelson Faria and Cliff Korman - Insede The Brazilian Rhythm Section CD2
DYEAR=2001
DGENRE=Jazz
TTITLE0=Samba - (Brasilified by Cliff Korman)
TTITLE1=Brasilified - no bass
TTITLE2=Brasilified - no drums
TTITLE3=Bossa Nova - (Rio by Nelson Faria)
TTITLE4=Rio - no bass
TTITLE5=Rio - no drums
TTITLE6=Partido-Alto - (Brooklyn High by Nelson Faria)
TTITLE7=Brooklyn High - no bass
TTITLE8=Brooklyn High - no drums
TTITLE9=Choro - (Saudade do Paulo by Cliff Korman and Oto Coberg)
TTITLE10=Saudade do Paulo - no bass
TTITLE11=Saudade do Paulo - no drums
TTITLE12=Baiao - (Playground by Nelson Faria)
TTITLE13=Playground - no bass
TTITLE14=Playground - no drums
TTITLE15=Frevo - (Sombrinhas do Olinda by Clliff Korman)
TTITLE16=Sombrinhas de Olinda - no bass
TTITLE17=Sombrinhas do Olinda - no drums
TTITLE18=Marcha-Rancho - (Fim de Festa by Nelson Faria and Cliff Korman)
TTITLE19=Fim de Festa - no bass
TTITLE20=Fim de Festa - no drums
TTITLE21=Afoxe - (Montanha Russa by Nelson Faria and Cliff Korman
TTITLE22=Montanha Russa - no bass
TTITLE23=Montanha Russa - no drums
EXTD=YEAR: 2001
EXTT0=
EXTT1=
EXTT2=
EXTT3=
EXTT4=
EXTT5=
EXTT6=
EXTT7=
EXTT8=
EXTT9=
EXTT10=
EXTT11=
EXTT12=
EXTT13=
EXTT14=
EXTT15=
EXTT16=
EXTT17=
EXTT18=
EXTT19=
EXTT20=
EXTT21=
EXTT22=
EXTT23=
PLAYORDER=
